<?xml version="1.0" encoding="utf-8"?>
<!-- Generator: Adobe Illustrator 18.1.0, SVG Export Plug-In . SVG Version: 6.00 Build 0)  -->
<svg version="1.1" id="Слой_1" xmlns="http://www.w3.org/2000/svg" xmlns:xlink="http://www.w3.org/1999/xlink" x="0px" y="0px"
	 viewBox="0 0 500 500" enable-background="new 0 0 500 500" xml:space="preserve">
<g>
	<g>
		<path fill="#EBF3FA" d="M68,354.1c0,0-50.2-53.8-8.5-112.1c37-51.7,80.1-48.2,111.7-27.2c13.5,8.9,52.3,1.1,85.4-51.5
			c45.1-71.8,201.3-28.3,172.8,82.2c-13.8,53.4,42,55.4,13.5,108.8L68,354.1z"/>
		<path fill="#DFEBFD" d="M474.7,282.7c-3.5-13-25.5-9-25.5-9s-14.9,22.8-19.3,23.4c-4.3,0.5,9-22,9-22c-8.4-0.8-29.9,9.5-29.9,9.5
			s1.4,26.6-3,26.1s0-23.6,0-23.6c-8.2,2.4-15.8,12-15.8,12c-9.5,15.5,10.9,26.9,10.9,26.9s0.3,9.2-5.4,19.8l0,0c0,0-1.3,2-2.6,5.3
			h2.2c0.2-0.6,0.4-1.2,0.6-1.7c0,0,0,0,0,0s0,0,0,0c0.2-0.3,0.4-0.8,0.6-1.4l0,0l0,0c0.7-1.3,1.1-2.3,1.4-3l0,0
			c2-4.2,5-9.6,6.9-10.8c0,0-0.3-0.3-0.5-1c0.2,0.3,0.3,0.7,0.5,1c3.8,8.2,22.8,9.5,33.4,7.3c10.6-2.2,6-5.2,0.3-10
			c-5.7-4.8-17.7-3.6-21.2-5.5c-3.5-1.9,1.6-3.8,8.7-3.3c7.1,0.5,10.6,7.6,22,8.7c11.4,1.1,20.1-20.4,20.1-20.4
			c-7.9,2.4-22-1.9-22.5-4.6c-0.5-2.7,20.4-2.4,23.6-3.3C472.5,302.2,478.2,295.7,474.7,282.7z"/>
		<path fill="#AFCDFB" d="M174.8,286.2c0,0,1,7.8-0.5,7.8s-0.5-8.7-0.5-8.7s-6.9-3.9-9.7-3.8c0,0,4,7.8,2.5,7.5
			c-1.4-0.3-5.9-8.1-5.9-8.1s-7.2-1.8-8.7,2.5c-1.4,4.3,0.3,6.5,1.4,6.9c1.1,0.3,8,0.7,7.8,1.6c-0.2,0.9-5,2-7.6,1.1
			c0,0,2.5,7.3,6.3,7.2c3.8-0.1,5.1-2.4,7.5-2.4c2.4,0,4,0.7,2.8,1.3c-1.2,0.6-5.1-0.1-7.1,1.4c-2,1.5-3.6,2.4-0.1,3.3
			c3.5,0.9,9.8,0.9,11.2-1.8c0.1-0.1,0.1-0.2,0.2-0.3c-0.1,0.2-0.2,0.3-0.2,0.3c0.6,0.4,1.5,2.3,2.1,3.7c0.1,0.2,0.2,0.6,0.4,1l0,0
			c0.1,0.2,0.1,0.4,0.2,0.5c1,3.2,0.1,8.5,0.1,8.5l0.7,0.3c2-5.3-0.7-9.9-0.7-9.9c-1.7-3.6-1.4-6.7-1.4-6.7s7-3.4,4.2-8.7
			C179.8,290.5,177.5,287.2,174.8,286.2z"/>
		<path fill="#CDE0FB" d="M122.6,320.8c-0.6-9.5,15.1-11.9,15.1-11.9s15.3,11.9,18.3,11.2s-11.1-12.7-11.1-12.7
			c5.5-2.5,22.2-0.5,22.2-0.5s5.2,18.2,8,16.8c2.8-1.4-5.4-15.8-5.4-15.8c6-0.2,13.3,4.4,13.3,4.4c9.9,8.2-1.1,20.5-1.1,20.5
			s1.9,6.3,8.2,12l0,0c0,0,1.3,1,3,2.9l-1.5,0.5c-0.3-0.4-0.5-0.7-0.8-1l0,0l0,0c-0.2-0.2-0.4-0.5-0.8-0.8l0,0l0,0
			c-0.8-0.7-1.3-1.3-1.7-1.7l0,0c-2.3-2.3-5.5-5.3-7.1-5.6c0,0,0.1-0.3,0.1-0.8c0,0.3-0.1,0.5-0.1,0.8c-0.7,6.3-13.1,11.6-20.7,12.6
			c-7.6,1-5.2-2.1-2.5-6.7c2.7-4.6,11-6.5,13-8.5s-2-2.2-6.6-0.2s-5.4,7.5-12.8,10.9s-18.2-9-18.2-9c5.8-0.2,14.3-6.3,14.1-8.3
			s-14.2,3-16.6,3.2C128.5,333.4,123.2,330.3,122.6,320.8z"/>
		<g>
			<path fill="#6BB7BF" d="M416.4,149.4c0,0-1.7-1.3-2.1-3.2c-0.3-1.4,0.5-3.2,0.5-3.2l-2.2-0.5c0,0-0.7,3,0.5,5
				c0.3,0.6,1.3,1.4,2,1.8C415.8,149.7,416.4,149.4,416.4,149.4z"/>
			<path fill="#86D1CD" d="M420.3,148.1l2,2.3c0,0-5.8,1.5-9.1-2.5C413.3,147.9,418.2,149.5,420.3,148.1z"/>
		</g>
		<g>
			<path fill="#F99746" d="M315.2,118.8c0,0,2.1-3.5,5.8-1.3l2-2.2c0,0-2.1-1.4-6.5,1.6C313.5,118.9,315.2,118.8,315.2,118.8z"/>
			<path fill="#F99746" d="M313.2,122.2c0,0-0.7-3.8,5.5-6.5c0,0-2.2,1.3-2.7,5.1L313.2,122.2z"/>
		</g>
		<g>
			<path fill="#5685D8" d="M186.9,230.8c0,0-3.4-1.3-2.1-5l-2.3-1.5c0,0-0.9,2.1,2.5,5.6C187.2,232.3,186.9,230.8,186.9,230.8z"/>
			<path fill="#739AF0" d="M190.3,232.2c0,0-3.3,1.2-6.7-3.9c0,0,1.5,1.8,5,1.6L190.3,232.2z"/>
		</g>
		<path fill="#F1A34F" d="M196.7,183.6c0,0,1.9-1.2,2.1-2.6c0,0,1.8,0.1,2.2,0.7c0,0-0.8,2.4-1.8,2.8
			C199.2,184.5,197,184.6,196.7,183.6z"/>
		<path fill="#F1A34F" d="M73.3,269.4c0,0-2-1.3-2.2-2.8c0,0-2,0.1-2.4,0.7c0,0,0.9,2.5,2,3C70.7,270.4,73.1,270.5,73.3,269.4z"/>
		<path fill="#86D1CD" d="M298.1,157.6c0,0-2.8-1.8-3.1-3.9c0,0-2.7,0.1-3.3,1c0,0,1.3,3.5,2.7,4.2
			C294.4,158.9,297.7,159.1,298.1,157.6z"/>
		<g>
			<path fill="#CDE0FB" d="M470,149.4l17.4,54.5c0.8,2.4-0.6,5-3,5.8l-95.6,30.5c-2.4,0.8-5-0.6-5.8-3l-17.4-54.5
				c-0.8-2.4,0.6-5,3-5.8l95.6-30.5C466.7,145.6,469.3,147,470,149.4z"/>
			<g>
				<path fill="#AFCDFB" d="M415,218.7l-25.5,8.1c-1.1,0.3-2.3-0.3-2.6-1.3l-0.1-0.3c-0.3-1.1,0.3-2.3,1.3-2.6l25.5-8.1
					c1.1-0.3,2.2,0.3,2.6,1.3l0.1,0.3C416.7,217.2,416.1,218.3,415,218.7z"/>
				<path fill="#AFCDFB" d="M448.6,207.9l-25.5,8.1c-1.1,0.3-2.2-0.3-2.6-1.3l-0.1-0.3c-0.3-1.1,0.3-2.3,1.3-2.6l25.5-8.1
					c1.1-0.3,2.3,0.3,2.6,1.3l0.1,0.3C450.3,206.4,449.7,207.6,448.6,207.9z"/>
				<g>
					<path fill="#AFCDFB" d="M418.3,189.5c0.3,0.9,0.4,1.8,0.3,2.4c-0.2,0.9-0.7,1.5-1.5,1.7c-0.8,0.3-1.6,0.1-2.3-0.5
						c-0.5-0.5-0.9-1.2-1.2-2.1c-0.3-0.9-0.4-1.7-0.3-2.4c0.2-0.9,0.7-1.5,1.5-1.7c0.9-0.3,1.6-0.1,2.2,0.5
						C417.6,187.9,418,188.6,418.3,189.5z M417.1,189.9c-0.2-0.6-0.4-1-0.7-1.4c-0.4-0.5-0.8-0.7-1.3-0.6c-0.5,0.2-0.7,0.5-0.7,1.2
						c0,0.4,0.1,1,0.3,1.5c0.5,1.6,1.2,2.3,2,2c0.5-0.2,0.7-0.6,0.7-1.2C417.4,191,417.3,190.5,417.1,189.9z"/>
					<path fill="#AFCDFB" d="M423.5,187.9c0.3,0.9,0.4,1.8,0.3,2.4c-0.2,0.9-0.7,1.5-1.5,1.7c-0.8,0.3-1.6,0.1-2.3-0.5
						c-0.5-0.5-0.9-1.2-1.2-2.1c-0.3-0.9-0.4-1.7-0.3-2.4c0.2-0.9,0.7-1.5,1.5-1.7c0.9-0.3,1.6-0.1,2.2,0.5
						C422.8,186.2,423.2,186.9,423.5,187.9z M422.4,188.2c-0.2-0.6-0.4-1-0.7-1.4c-0.4-0.5-0.8-0.7-1.3-0.6
						c-0.5,0.2-0.7,0.5-0.7,1.2c0,0.4,0.1,1,0.3,1.5c0.5,1.6,1.2,2.3,2,2c0.5-0.2,0.7-0.6,0.7-1.2
						C422.6,189.3,422.5,188.8,422.4,188.2z"/>
					<path fill="#AFCDFB" d="M431.5,185.3c0.3,0.9,0.4,1.8,0.3,2.4c-0.2,0.9-0.7,1.5-1.5,1.7c-0.8,0.3-1.6,0.1-2.3-0.5
						c-0.5-0.5-0.9-1.2-1.2-2.1s-0.4-1.7-0.3-2.4c0.2-0.9,0.7-1.5,1.5-1.7c0.9-0.3,1.6-0.1,2.2,0.5
						C430.8,183.7,431.2,184.4,431.5,185.3z M430.3,185.7c-0.2-0.6-0.4-1-0.7-1.4c-0.4-0.5-0.8-0.7-1.3-0.6
						c-0.5,0.2-0.7,0.5-0.7,1.2c0,0.4,0.1,1,0.3,1.5c0.5,1.6,1.2,2.3,2,2c0.5-0.2,0.7-0.6,0.7-1.2
						C430.6,186.8,430.5,186.3,430.3,185.7z"/>
					<path fill="#AFCDFB" d="M436.7,183.7c0.3,0.9,0.4,1.8,0.3,2.4c-0.2,0.9-0.7,1.5-1.5,1.7c-0.8,0.3-1.6,0.1-2.3-0.5
						c-0.5-0.5-0.9-1.2-1.2-2.1c-0.3-0.9-0.4-1.7-0.3-2.4c0.2-0.9,0.7-1.5,1.5-1.7c0.9-0.3,1.6-0.1,2.2,0.5
						C436,182,436.4,182.7,436.7,183.7z M435.5,184c-0.2-0.6-0.4-1-0.7-1.4c-0.4-0.5-0.8-0.7-1.3-0.6c-0.5,0.2-0.7,0.5-0.7,1.2
						c0,0.4,0.1,1,0.3,1.5c0.5,1.6,1.2,2.3,2,2c0.5-0.2,0.7-0.6,0.7-1.2C435.8,185.1,435.7,184.6,435.5,184z"/>
					<path fill="#AFCDFB" d="M441.9,182c0.3,0.9,0.4,1.8,0.3,2.4c-0.2,0.9-0.7,1.5-1.5,1.7c-0.8,0.3-1.6,0.1-2.3-0.5
						c-0.5-0.5-0.9-1.2-1.2-2.1c-0.3-0.9-0.4-1.7-0.3-2.4c0.2-0.9,0.7-1.5,1.5-1.7c0.9-0.3,1.6-0.1,2.2,0.5
						C441.2,180.3,441.6,181.1,441.9,182z M440.7,182.3c-0.2-0.6-0.4-1-0.7-1.4c-0.4-0.5-0.8-0.7-1.3-0.6c-0.5,0.2-0.7,0.5-0.7,1.2
						c0,0.4,0.1,1,0.3,1.5c0.5,1.6,1.2,2.3,2,2c0.5-0.2,0.7-0.6,0.7-1.2C441,183.5,441,182.9,440.7,182.3z"/>
					<path fill="#AFCDFB" d="M447.2,180.3c0.3,0.9,0.4,1.8,0.3,2.4c-0.2,0.9-0.7,1.5-1.5,1.7c-0.8,0.3-1.6,0.1-2.3-0.5
						c-0.5-0.5-0.9-1.2-1.2-2.1s-0.4-1.7-0.3-2.4c0.2-0.9,0.7-1.5,1.5-1.7c0.9-0.3,1.6-0.1,2.2,0.5
						C446.5,178.7,446.9,179.4,447.2,180.3z M446,180.7c-0.2-0.6-0.4-1-0.7-1.4c-0.4-0.5-0.8-0.7-1.3-0.6c-0.5,0.2-0.7,0.5-0.7,1.2
						c0,0.4,0.1,1,0.3,1.5c0.5,1.6,1.2,2.3,2,2c0.5-0.2,0.7-0.6,0.7-1.2C446.3,181.8,446.2,181.3,446,180.7z"/>
					<path fill="#AFCDFB" d="M455.1,177.8c0.3,0.9,0.4,1.8,0.3,2.4c-0.2,0.9-0.7,1.5-1.5,1.7c-0.8,0.3-1.6,0.1-2.3-0.5
						c-0.5-0.5-0.9-1.2-1.2-2.1c-0.3-0.9-0.4-1.7-0.3-2.4c0.2-0.9,0.7-1.5,1.5-1.7c0.9-0.3,1.6-0.1,2.2,0.5
						C454.4,176.1,454.8,176.8,455.1,177.8z M453.9,178.1c-0.2-0.6-0.4-1-0.7-1.4c-0.4-0.5-0.8-0.7-1.3-0.6
						c-0.5,0.2-0.7,0.5-0.7,1.2c0,0.4,0.1,1,0.3,1.5c0.5,1.6,1.2,2.3,2,2c0.5-0.2,0.7-0.6,0.7-1.2
						C454.2,179.3,454.1,178.7,453.9,178.1z"/>
					<path fill="#AFCDFB" d="M460.3,176.1c0.3,0.9,0.4,1.8,0.3,2.4c-0.2,0.9-0.7,1.5-1.5,1.7c-0.8,0.3-1.6,0.1-2.3-0.5
						c-0.5-0.5-0.9-1.2-1.2-2.1c-0.3-0.9-0.4-1.7-0.3-2.4c0.2-0.9,0.7-1.5,1.5-1.7c0.9-0.3,1.6-0.1,2.2,0.5
						C459.6,174.5,460,175.2,460.3,176.1z M459.2,176.5c-0.2-0.6-0.4-1-0.7-1.4c-0.4-0.5-0.8-0.7-1.3-0.6c-0.5,0.2-0.7,0.5-0.7,1.2
						c0,0.4,0.1,1,0.3,1.5c0.5,1.6,1.2,2.3,2,2c0.5-0.2,0.7-0.6,0.7-1.2C459.4,177.6,459.3,177.1,459.2,176.5z"/>
					<path fill="#AFCDFB" d="M465.6,174.4c0.3,0.9,0.4,1.8,0.3,2.4c-0.2,0.9-0.7,1.5-1.5,1.7c-0.8,0.3-1.6,0.1-2.3-0.5
						c-0.5-0.5-0.9-1.2-1.2-2.1c-0.3-0.9-0.4-1.7-0.3-2.4c0.2-0.9,0.7-1.5,1.5-1.7c0.9-0.3,1.6-0.1,2.2,0.5
						C464.9,172.8,465.3,173.5,465.6,174.4z M464.4,174.8c-0.2-0.6-0.4-1-0.7-1.4c-0.4-0.5-0.8-0.7-1.3-0.6
						c-0.5,0.2-0.7,0.5-0.7,1.2c0,0.4,0.1,1,0.3,1.5c0.5,1.6,1.2,2.3,2,2c0.5-0.2,0.7-0.6,0.7-1.2
						C464.7,175.9,464.6,175.4,464.4,174.8z"/>
					<path fill="#AFCDFB" d="M470.8,172.8c0.3,0.9,0.4,1.8,0.3,2.4c-0.2,0.9-0.7,1.5-1.5,1.7c-0.8,0.3-1.6,0.1-2.3-0.5
						c-0.5-0.5-0.9-1.2-1.2-2.1c-0.3-0.9-0.4-1.7-0.3-2.4c0.2-0.9,0.7-1.5,1.5-1.7c0.9-0.3,1.6-0.1,2.2,0.5
						C470.1,171.1,470.5,171.8,470.8,172.8z M469.6,173.1c-0.2-0.6-0.4-1-0.7-1.4c-0.4-0.5-0.8-0.7-1.3-0.6
						c-0.5,0.2-0.7,0.5-0.7,1.2c0,0.4,0.1,1,0.3,1.5c0.5,1.6,1.2,2.3,2,2c0.5-0.2,0.7-0.6,0.7-1.2
						C469.9,174.2,469.8,173.7,469.6,173.1z"/>
				</g>
				<path fill="#AFCDFB" d="M400.8,175.9l-25,8c-1.1,0.3-2.3-0.2-2.6-1.3l0,0c-0.3-1.1,0.3-2.3,1.3-2.6l25-8
					c1.1-0.3,2.3,0.2,2.6,1.3l0,0C402.5,174.4,401.8,175.5,400.8,175.9z"/>
				<g>
					<g>
						<path fill="#AFCDFB" d="M461.4,161.1c-0.2-0.7-0.7-1.3-1.3-1.7c-0.2-0.1-0.4,0-0.5,0.1l-0.1,0.2c-0.1,0.2,0,0.3,0.1,0.4
							c0.4,0.3,0.8,0.7,0.9,1.2c0.2,0.5,0.1,1,0,1.5c-0.1,0.2,0,0.3,0.2,0.4l0.2,0.1c0.2,0.1,0.4,0,0.5-0.2
							C461.5,162.6,461.6,161.8,461.4,161.1z"/>
					</g>
					<g>
						<path fill="#AFCDFB" d="M463,160.6c-0.4-1.2-1.2-2.1-2.1-2.7c-0.2-0.1-0.4,0-0.5,0.1l0,0.1c-0.1,0.2,0,0.3,0.1,0.4
							c0.8,0.5,1.5,1.3,1.8,2.3s0.2,2-0.1,2.9c-0.1,0.2,0,0.4,0.2,0.4l0.1,0c0.2,0.1,0.4,0,0.5-0.2C463.2,163,463.3,161.8,463,160.6
							z"/>
					</g>
					<g>
						<path fill="#AFCDFB" d="M464.4,160.1c-0.5-1.6-1.5-2.8-2.9-3.6c-0.2-0.1-0.4,0-0.5,0.1l0,0c-0.1,0.2,0,0.4,0.1,0.4
							c1.2,0.7,2.1,1.8,2.6,3.2c0.5,1.4,0.3,2.8-0.3,4.1c-0.1,0.2,0,0.4,0.1,0.4l0,0c0.2,0.1,0.4,0,0.5-0.2
							C464.7,163.3,464.9,161.7,464.4,160.1z"/>
					</g>
					<g>
						<path fill="#AFCDFB" d="M465.9,159.7c-0.6-2-2-3.6-3.7-4.5c-0.2-0.1-0.4,0-0.5,0.1l-0.1,0.2c-0.1,0.2,0,0.4,0.1,0.4
							c1.5,0.9,2.7,2.3,3.3,4c0.6,1.8,0.4,3.6-0.3,5.2c-0.1,0.2,0,0.4,0.1,0.4l0.2,0.1c0.2,0.1,0.4,0,0.5-0.2
							C466.4,163.7,466.6,161.6,465.9,159.7z"/>
					</g>
				</g>
			</g>
		</g>
		<g>
			<rect x="347.1" y="196.7" fill="#FFA412" width="54.5" height="156.8"/>
			<rect x="203.2" y="196.7" fill="#FFB93E" width="143.9" height="156.8"/>
			<rect x="203.2" y="273.4" fill="#FFA412" width="143.9" height="11"/>
			<rect x="347.1" y="273.4" fill="#FA9712" width="54.5" height="11"/>
			<path fill="#F99746" d="M302.4,198.4c0,0,32.5-21.1,54.6-14.3l-4.6,4.3l2,7.2c0,0-24.6-8-52.8,4.1L302.4,198.4z"/>
			<path fill="#F99746" d="M300.6,193.6c0,0-5.7-0.7-14.3-1.9c-22.7-3.1-65.2-9.7-72.8-15.7c-12-9.5,16.4-49.8,28.7-55.4
				C254.5,115.1,300.6,193.6,300.6,193.6z"/>
			<path fill="#F99746" d="M390.5,143.4c2,10-90.8,53.1-90.8,53.1s1.7-4.6,4.4-11.7c0,0,0,0,0,0c10-26.1,34.2-86.7,42.2-85.9
				c0.8,0.1,1.7,0.4,2.8,0.8C361.3,105.1,388.7,134.2,390.5,143.4z"/>
			<path fill="#ED7D2B" d="M348.4,108.7c-5.7,9.8-43.5,75.1-44.1,76.2c10-26.1,34.2-86.7,42.2-85.9c0,0,1.6,0,2.8,0.8
				C350.6,100.8,351.5,103.2,348.4,108.7z"/>
			<path fill="#ED7D2B" d="M286.4,191.7L286.4,191.7c-22.7-3.1-65.2-9.7-72.8-15.7c-3.4-9.7,5.5-10.5,12-11.2
				C232,164.2,286.4,191.7,286.4,191.7z"/>
			<path fill="#ED7D2B" d="M283.3,196.7c0,0,5.2-11.8,15.4-12.5c10.7-0.7,16.8,12.5,16.8,12.5H283.3z"/>
			<rect x="198.9" y="196.7" fill="#FFC261" width="150.5" height="21.6"/>
			<rect x="349.4" y="196.7" fill="#FA9712" width="56.7" height="21.6"/>
			<path fill="#F99746" d="M288.6,194.9c0,0-29.5-9.3-49.4-3.2c-22.9,7.1-21.6,35.4-21.6,35.4l5.4-2.2l7.3,3.4c0,0,1.2-30,19.9-34.2
				C266.4,190.6,288.6,194.9,288.6,194.9z"/>
			<rect x="262.5" y="196.7" fill="#FFA412" width="11" height="156.8"/>
		</g>
		<g>
			
				<rect x="167.2" y="150.5" transform="matrix(-0.9482 0.3178 -0.3178 -0.9482 388.7616 268.2417)" fill="#ED7D2B" width="10.6" height="30.6"/>
			
				<rect x="140.1" y="156.7" transform="matrix(-0.9482 0.3178 -0.3178 -0.9482 354.9682 286.0685)" fill="#F99746" width="28.1" height="30.6"/>
			
				<rect x="153.3" y="158.6" transform="matrix(-0.3178 -0.9482 0.9482 -0.3178 39.712 373.9456)" fill="#FFB93E" width="2.1" height="28.1"/>
			
				<rect x="171.7" y="161.2" transform="matrix(-0.3178 -0.9482 0.9482 -0.3178 69.7203 383.2522)" fill="#F69B34" width="2.1" height="10.6"/>
			<path fill="#FFB93E" d="M155.2,155c0,0,6.9-6.4,13.1-6.9l-0.9,1.1l1,1.2c0,0-6.9,0.5-13.3,4.9L155.2,155z"/>
			<g>
				<path fill="#FFB93E" d="M153.8,155.3c0,0-1.1,0.2-2.8,0.5c-4.4,0.8-12.7,2.3-14.5,1.6c-2.8-1,0-10.2,1.9-12
					C140.4,143.6,153.8,155.3,153.8,155.3z"/>
				<g>
					<path fill="#FFB93E" d="M167.3,140.4c1,1.7-13.5,15.5-13.5,15.5s0-1,0.1-2.4l0,0c0.2-5.5,1-18.2,2.5-18.5c0.2,0,0.3,0,0.6,0
						C159.6,135.2,166.4,138.9,167.3,140.4z"/>
					<path fill="#F69B34" d="M157.4,136.6c-0.4,2.2-3.4,16.6-3.4,16.8c0.2-5.5,1-18.2,2.5-18.5c0,0,0.3-0.1,0.6,0
						C157.3,135.1,157.6,135.4,157.4,136.6z"/>
				</g>
				<path fill="#F69B34" d="M151,155.9L151,155.9c-4.4,0.8-12.7,2.3-14.5,1.6c-1.2-1.6,0.4-2.3,1.5-2.8
					C139.3,154.1,151,155.9,151,155.9z"/>
				<path fill="#F69B34" d="M150.8,157c0,0,0.2-2.5,2.1-3.3c1.9-0.8,3.9,1.3,3.9,1.3L150.8,157z"/>
			</g>
			
				<rect x="135.1" y="157.4" transform="matrix(-0.9482 0.3178 -0.3178 -0.9482 342.4926 263.2049)" fill="#FFA15A" width="29.4" height="4.2"/>
			
				<rect x="163.4" y="151" transform="matrix(-0.9482 0.3178 -0.3178 -0.9482 377.8015 244.5889)" fill="#F78639" width="11.1" height="4.2"/>
			<path fill="#FFBE55" d="M151.7,156.3c0,0-6,0.1-9.3,2.5c-3.8,2.7-1.8,7.9-1.8,7.9l0.9-0.8l1.6,0.2c0,0-1.6-5.6,1.6-7.6
				C147.3,156.9,151.7,156.3,151.7,156.3z"/>
			
				<rect x="151.8" y="157.1" transform="matrix(-0.9482 0.3178 -0.3178 -0.9482 352.6492 287.583)" fill="#FFB93E" width="2.1" height="30.9"/>
		</g>
		<g>
			<path fill="#233862" d="M348.2,213.3c0,0-4,2.3-1.5,6.9c0,0-3.5-0.6-4.3-1.7c0,0,0.1,0.4,0.2,0.7c0,0-3.2-0.7-4.3-2.1
				c-1-1.3,4.1-17.4,12.4-13.2c0,0,7.6,1.4,4.6,9.9c-3,8.5-0.2,9.2-0.2,9.2s-0.9,0.2-1.3,0.1c0,0-0.5-0.4-0.5-0.7c0,0,0,0.5,0.1,0.7
				c0,0-3.1-0.5-4.3-2.1S347.3,215,348.2,213.3z"/>
			<path fill="#FFB27D" d="M342.5,227C342.5,227,342.5,227,342.5,227C342.5,227,342.5,227,342.5,227z"/>
			<path fill="#FFB27D" d="M352.2,224.2c0.1,1,0.3,2,0.3,2.4c0.1,1-9.4,0.3-10,0.3c0.4-0.2,1.7-4.3,2.1-5.9c0.5-1.9,0.9-4,0.9-4
				l6.7,0.4l0.4,0c-0.3,0.9-0.4,1.8-0.5,2.6c0,0.1,0,0.2,0,0.3C351.9,221.4,352,222.9,352.2,224.2z"/>
			<path fill="#233862" d="M344.6,216.5c0,0-1.1-3.5-0.9-6.1c0.2-1.9,2.9-8.4,9.3-5.6c0,0,1.9,0.7,3.4,2.4c1.2,1.4,2.8,4.1-1.2,9.3
				l-1.1,1.8L344.6,216.5z"/>
			<path fill="#ED975D" d="M352.2,224.2c-4.7-1.4-6.7-6.8-6.7-6.8c2,0.1,4.6,1.4,6.6,2.8c0,0.1,0,0.2,0,0.3
				C351.9,221.4,352,222.9,352.2,224.2z"/>
			<path fill="#FFB27D" d="M352.5,222.3c0,0-8.5-2.1-7.1-7.4s1.2-9.1,6.7-8c5.5,1.1,6,3.4,6,5.3
				C358.1,214.1,354.8,222.7,352.5,222.3z"/>
			<path fill="#233862" d="M356,207.8c0,0-4,5.6-7.8,5.5c-3.8,0-5.1-1.4-5.1-1.4s3.3-1.5,4.9-5.1C348,206.9,355,204.4,356,207.8z"/>
			<path fill="#233862" d="M355.3,208.1c0,0,1.4,1.8,1.4,3.3c0.1,1.5-0.5,4.3,0.4,4.4c0,0,2.9-3.8,1.5-6.6
				C357.2,206.1,355.3,208.1,355.3,208.1z"/>
			<path fill="#233862" d="M355.6,208.4c0,0-3.4,6-8.4,6.9c0,0,5.5-2.8,7.1-7C355.7,204.2,355.6,208.4,355.6,208.4z"/>
			<path fill="#FFFFFF" d="M351.2,218.9c0,0,0.1,0.8,0.6,1c0.5,0.2,1.9,0.5,2,0.5s0.6-0.7,0.6-0.7S352.3,218.8,351.2,218.9z"/>
			<path fill="#FFB27D" d="M348,299.7c-0.1,0.5-0.2,0.9-0.3,1.3c-0.6,2.7-1.2,5.1-1.6,7.2c-0.5,2.7-0.6,4.7,0,5.5c2.6,3.5,0,31,0,31
				l-3,3.1c0,0-5.2-27.2-6.6-31.4c-0.6-1.9-1.6-10.2-2.4-18.6c0-0.4-0.1-0.8-0.1-1.3c-0.1-1.5-0.3-2.9-0.4-4.4
				c-0.8-8-1.3-14.8-1.3-14.8s5.5-3.9,10.6-4.3c3-0.3,5.8,0.7,7.1,4.3C351.9,282.6,349.9,291.8,348,299.7z"/>
			<path fill="#ED975D" d="M348,299.7c-4.1-3-9.9-8.3-12-17c-0.4-4.3,3-8.4,6.8-9.7c3-0.3,5.8,0.7,7.1,4.3
				C351.9,282.6,349.9,291.8,348,299.7z"/>
			<path fill="#FFB27D" d="M363,247.2l20.3,5.2v2.4c0,0-20.2-0.2-21.5-2.5C360.5,250.1,363,247.2,363,247.2z"/>
			<path fill="#FFB27D" d="M383.3,325.2l-1,3.9c0,0-27.4-14.2-30.9-16.9c-1.4-1.1-3.3-7-5-13.7c-2.6-10-4.9-21.7-4.9-21.7
				s3.8-14.8,14.1-5.7c6.2,5.4,5.2,15.8,4.5,24c-0.5,5.4-0.8,9.8,1.3,11c4,2.2,15.7,12.5,19.4,19.5L383.3,325.2z"/>
			<path fill="#FFB27D" d="M336.8,259.5c-7.2-1.8-15-12.9-15-12.9l2-1.7c2.1,2.5,10.8,6.7,10.8,6.7c0-2.3,0-4.3,0.2-6.2
				c1-12.7,5.8-16.9,7.1-17.9c0.2-0.2,0.3-0.2,0.3-0.2s0,0.1,0,0.3c0,0.4,0,1.1,0.1,2.2C342.5,237.5,342.8,261,336.8,259.5z"/>
			<path fill="#FFFFFF" d="M342.5,244.3c-0.4,9.1-1.7,18-5.7,17.5c-4.8-0.7-6.1-5.2-6.3-8.6c-0.2-2.1,0.1-3.7,0.1-3.7s2.4,0,2.8-0.4
				c1.8-1.7,1.3-18.3,2.2-20s6.8-2.8,6.8-2.8S342.8,235.3,342.5,244.3z"/>
			<path fill="#DFEBFD" d="M342.5,244.3c-0.4,9.1-1.7,18-5.7,17.5c-4.8-0.7-6.1-5.2-6.3-8.6c1.2-0.1,3.3-0.3,4.1-1.6
				c1.2-1.8,4.9-13.5,4.9-13.5S340.9,240.7,342.5,244.3z"/>
			<path fill="#FFFFFF" d="M373,247.2c1.3,1.9,0.6,5.5-2.2,8.4c-1.7,1.8-4,2.9-7.8,2.3c-1.6-0.2-6.2-2.8-6.7-6
				c-0.1-0.6-0.1-0.9-0.1-0.9s-2.1,2.1-2.2,2.5c0,0.2-0.2,1.8-0.3,2c0,0.3,0.2,1.2,0.2,1.2s-10,4.4-18.2-0.6c0,0-2.3-20.1-0.7-23.5
				c0.8-1.7,5.5-4.9,7.2-6.3c0.4-0.3,0.7-1.3,0.6-1.9c-0.1-0.5,0.5-1.4,1-1.3c1,0.3,3.8,1.7,5.7,1.2c1-0.3,2.2-1.4,3.2-1.1
				c1.2,0.3-0.1,3.1,0.6,3.1c0.9,0,5.8,1,6.2,1.8c0.1,0.3,1.5,4,3.3,8.9c0,0,0,0,0,0C366.2,246.2,371,244.5,373,247.2z"/>
			<path fill="#DFEBFD" d="M356.2,251c0,0-0.3-7.7-0.9-7.6c-0.6,0.1-9.6,8.7-7.5,12.2C350,259.1,356.2,251,356.2,251z"/>
			<path fill="#2B478B" d="M363,282.5c0,0-3.5,1.1-8.5,1.8c-6.3,0.9-15.1,1.2-23-1.8c0,0-0.6-11.7,1.2-17.8s2.7-9,2.7-9
				s7.5,1.9,15,0.4c1.1-0.2,2.1-0.5,3.2-0.8c0,0,4.7,9.9,6,14.2S363,282.5,363,282.5z"/>
			<path fill="#233862" d="M363,282.5c0,0-3.5,1.1-8.5,1.8c-9.3-5.3-4.8-27.5-4.8-27.5c0.3-0.2,0.5-0.4,0.8-0.6
				c1.1-0.2,2.1-0.5,3.2-0.8c0,0,4.7,9.9,6,14.2C360.9,273.7,363,282.5,363,282.5z"/>
			<g>
				<path fill="#B64C41" d="M343.4,257.9c-5.5,0-7.8-1.9-8-2l-0.4-2.6c0,0,7.5,4.5,18.9,0.2l-0.3,2
					C349.4,257.1,346.3,257.9,343.4,257.9z"/>
			</g>
			<path fill="#FFB27D" d="M383.3,252.5c0,0,3.7-1.8,5.2-2c1.5-0.2,4-0.2,4,0s-2.7,1.9-3.4,2c-0.7,0.1-2.1,1.1-1.7,1.3
				c0.4,0.1,2.6-0.4,2.6,0c0,0.4-1.3,0.6-1.6,0.9s-1.1,0.7-2.4,0.5c-1.3-0.2-2.8-0.3-2.8-0.3L383.3,252.5L383.3,252.5z"/>
			<path fill="#FFB27D" d="M323.8,244.8l-2,1.8c0,0-3.6-2.6-3.8-3.7v-0.1c0-1.1,2.3-3.4,4.2-3.5c0.2,0,0.4,0,0.5,0.1
				c1,0.6,1.1,3.3,1.1,4.6C323.8,244.5,323.8,244.8,323.8,244.8z"/>
			<path fill="#2B478B" d="M383.3,325.2l-1,3.9c0,0-27.4-14.2-30.9-16.9c-1.4-1.1-3.3-7-5-13.7c2.3,0.5,7.4,0.7,13.8-3.5
				c-0.5,5.4-0.8,9.8,1.3,11c4,2.2,15.7,12.5,19.4,19.5L383.3,325.2z"/>
			<path fill="#233862" d="M388.7,326.7C388.7,326.7,388.7,326.7,388.7,326.7c-0.2,0-0.7-0.2-1.1-1.1c-0.3-0.6-0.3-1.1-0.5-1.7
				l-0.9-1.6c-1-1.3-1.3-1-1.3-1s-0.3,0.3-0.6,0.8c-0.6,0.7-1.6,1.7-2.2,1.9c-0.5,0.2-0.8,0.5-1,0.8c-0.2,0.3-0.3,0.7-0.3,0.7
				s2,0.3,1.8,1.3c-0.3,1.9-0.3,2.2-0.2,2.3l0,0c0,0,3.4,1.8,4.5,2.1c1.9,0.6,2.9,1.9,3.6,2.5c0.3,0.3,0.6,0.4,1,0.3
				c0.5-0.1,1.2-0.3,1.3-0.6L388.7,326.7z"/>
			<path fill="#233862" d="M346.1,313.8c2.6,3.5,0,31,0,31l-3,3.1c0,0-5.2-27.2-6.6-31.4c-0.6-1.9-1.6-10.2-2.4-18.6
				c2.5,1.1,8.6,3.5,13.7,3.2c-0.6,2.7-1.2,5.1-1.6,7.2C345.6,310.9,345.5,312.9,346.1,313.8z"/>
			<path fill="#233862" d="M349.1,349.2l-1.6,0.9c-0.6,0.2-1.1,0.3-1.7,0.5c-0.9,0.3-1.5,1-1.6,1.2c-0.5,1.9-1.1,1.7-1.1,1.7
				l-6.5,0.1c-0.3-0.2,0.2-1.5,0.5-1.7c0.6-0.6,2.5-0.3,3.1-2.2c0.4-1.1,2.2-4.4,2.2-4.4l0,0c0.1,0,0.4-0.1,2.3,0.3
				c1,0.2,1.4-1.8,1.4-1.8s0.3,0.1,0.6,0.3c0.3,0.2,0.6,0.5,0.7,1c0.2,0.7,1.2,1.7,1.9,2.3c0.4,0.4,0.7,0.6,0.7,0.6
				S350.4,348.3,349.1,349.2z"/>
		</g>
		<g>
			<rect x="255.9" y="274" fill="#4A75CB" width="27.7" height="79.8"/>
			<rect x="182.7" y="274" fill="#739AF0" width="73.2" height="79.8"/>
			<rect x="182.7" y="313" fill="#AFCDFB" width="73.2" height="5.6"/>
			<rect x="255.9" y="313" fill="#88B3FF" width="27.7" height="5.6"/>
			<path fill="#4A75CB" d="M236.1,272.8c0,0,22.4-10.2,38.1-6.3l-3.1,2.1l1.6,3.7c0,0-17.4-4.5-37,1.1L236.1,272.8z"/>
			<g>
				<path fill="#72A9F7" d="M232.2,272.4c0,0-2.9-0.4-7.3-1c-11.5-1.6-33.2-4.9-37-8c-6.1-4.8,8.3-25.3,14.6-28.2
					C208.8,232.4,232.2,272.4,232.2,272.4z"/>
				<path fill="#72A9F7" d="M278,246.8c1,5.1-46.2,27-46.2,27s0.9-2.3,2.3-6l0,0c5.1-13.3,17.4-44.1,21.4-43.7
					c0.4,0,0.9,0.2,1.4,0.4C263.1,227.4,277,242.2,278,246.8z"/>
				<path fill="#4A75CB" d="M256.5,229.2c-2.9,5-22.1,38.2-22.5,38.7c5.1-13.3,17.4-44.1,21.4-43.7c0,0,0.8,0,1.4,0.4
					C257.7,225.2,258.1,226.4,256.5,229.2z"/>
				<path fill="#4A75CB" d="M225,271.4L225,271.4c-11.5-1.6-33.2-4.9-37-8c-1.7-4.9,2.8-5.3,6.1-5.7
					C197.4,257.4,225,271.4,225,271.4z"/>
				<path fill="#4A75CB" d="M223.5,273.9c0,0,2.6-6,7.9-6.4c5.4-0.3,8.5,6.4,8.5,6.4H223.5z"/>
			</g>
			<rect x="180.5" y="274" fill="#88B3FF" width="76.5" height="11"/>
			<rect x="257.1" y="274" fill="#3969B7" width="28.9" height="11"/>
			<path fill="#4A75CB" d="M226.1,273.1c0,0-15-4.8-25.1-1.6c-11.7,3.6-11,18-11,18l2.8-1.1l3.7,1.7c0,0,0.6-15.2,10.1-17.4
				C214.8,270.9,226.1,273.1,226.1,273.1z"/>
			<rect x="212.8" y="274" fill="#AFCDFB" width="5.6" height="80.5"/>
		</g>
		<g>
			<path fill="#233862" d="M94.1,241.2c0,0,20.6,15.1,25.7,14.8c5-0.4,22.9-11.4,22.9-11.4l-3.8-4.5c0,0-16.2,6-19.1,4.3
				c-3-1.7-14.5-15.7-19.4-14.9C95.5,230.3,90.7,235.8,94.1,241.2z"/>
			<g>
				<path fill="#233862" d="M82,354.8h-6.2c-0.8-0.4-1.5-1.4-1.7-2.8c-0.3-2-2.5-3.1-3-4.7c-0.5-1.6,2-3.9,2-3.9l0.4-0.5l0.4-0.5
					l4.1,1c0,0,0.1,1,0.2,2.2c0,0.9,0.1,1.9,0,2.8c-0.1,2.2,0.6,4.5,2.5,4.9C82.2,353.5,82.1,354.4,82,354.8z"/>
				<path fill="#233862" d="M117.7,354.8h-14.1c-0.7-0.8-0.4-3.9-0.3-4.9c0-0.2,0-0.3,0-0.3s4.8-3.8,5.5-0.9c0,0.1,0,0.2,0.1,0.3
					c0.8,2.8,4.6,4,6.7,4.4C117,353.6,117.6,354.3,117.7,354.8z"/>
				<path fill="#F99746" d="M115.1,276.1c0,0-0.7,9.1-1.6,20.1c-1.2,14.9-2.6,33.2-2.7,36.7c-0.2,6-1.2,15.6-1.2,15.6
					s-2.3,2.3-6.9,1.3c0,0-4.1-13.7-5.2-28.3c0-0.2,0-0.5,0-0.7c-1.1-14.8-2.8-46-2.8-46L115.1,276.1z"/>
				<path fill="#ED7D2B" d="M115.1,276.1c0,0-0.7,9.1-1.6,20.1l-16,25.3c0-0.2,0-0.5,0-0.7c-1.1-14.8-2.8-46-2.8-46L115.1,276.1z"/>
				<path fill="#F99746" d="M111.7,277.2c0,0-13.2,33-21.8,48.5c-8.7,15.5-11.4,19.9-11.4,19.9s-5-2-5.4-3.3c0,0,3.3-30,9.1-37.3
					c3.3-4.1,7.1-16.5,7.3-20.8c0.2-4.3,1.2-12.9,1.2-12.9L111.7,277.2z"/>
			</g>
			<path fill="#FFB27D" d="M103,230.1c-4.9,2.2-14.3-1.1-14.3-1.1s4.3-4.1,3.2-11.4l4.3,2.7l3,1.8c0,0,0.1,1.3,0.1,3.5
				c0,0.6,0,1.3-0.1,2C101.6,228.7,103,230.1,103,230.1z"/>
			<path fill="#ED975D" d="M99.2,222.2c0,0,0.1,1.3,0.1,3.5c-3-0.2-7-4.5-7-4.5c1.5-0.6,2.8-0.9,3.9-0.8L99.2,222.2z"/>
			<path fill="#FFB27D" d="M100.7,221.9c0,0-8.3,2.4-9.7-2.8s-3.5-8.3,1.8-10.1s6.8-0.1,7.7,1.5
				C101.4,212.2,102.9,221.1,100.7,221.9z"/>
			<path fill="#2B478B" d="M115.6,272.8c0.3,2.4,0.4,3.9,0.3,3.9c-0.1,0.1-0.3,0.3-0.5,0.3c-1.9,0.2-7.4,1.9-12.2,2
				c-4,0.1-7.7-0.7-11.7-1.9c-0.5-0.2-1.8-0.6-1.8-1.2c-0.1-0.6-0.1-1.5-0.2-2.7c-0.2-4-0.5-10.8-1.9-18.5c-0.3-1.4-0.5-2.9-0.6-4.3
				c-1.3-10.5-0.3-20,3.5-23.7c0.3-0.3,2.7,0.5,4.8,1.3c2,0.7,3.9,0.6,5.6,0l2,1.3c2.4,1.7,5.1,4.2,6.6,8.2
				c1.3,3.4,2.6,9.7,3.6,16.2c0.5,3,1,5.9,1.3,8.8l0,0.1c0.1,0.3,0.1,0.6,0.1,0.9c0.1,0.5,0.1,1,0.2,1.5
				C115,268.1,115.4,270.8,115.6,272.8z"/>
			<path fill="#2B478B" d="M91,218.6c0,0,0.8-0.2,0.6-1.4c-0.3-1.2-0.5-2.7,0.5-2.6c1,0.2,1.1,0.9,1.5,0.4s0.1-2.4,3-2.9
				c2.9-0.5,4.2,0.4,5.4-0.4c1.3-0.8,1.1-2.8,1.1-2.8s-0.3,0.8-0.8,1.1c0,0,1.9-3.3-1-5.1c-2.8-1.8-5.3-0.1-6.8,0.2
				c-3.3,0.6-5.4,1-6.2,3.4C87.4,210.8,88.6,216.8,91,218.6z"/>
			<path fill="#233862" d="M115.6,272.8c-0.4,0.1-7.5,1.3-12.3-1.8c-4.9-3.3-10.7-22.5-10.7-22.5s11.1,12.3,11.3,12.8
				c0.2,0.4,8.2,3,10.7,3.8C115,268.1,115.4,270.8,115.6,272.8z"/>
			<g>
				<g>
					
						<rect x="118.6" y="211.3" transform="matrix(-0.9999 1.422611e-002 -1.422611e-002 -0.9999 295.4263 475.4551)" fill="#ED7D2B" width="54.9" height="54.9"/>
					
						<rect x="106.9" y="211.5" transform="matrix(-0.9999 1.422611e-002 -1.422611e-002 -0.9999 272.0231 475.9339)" fill="#F99746" width="54.9" height="54.9"/>
				</g>
				<g>
					<path fill="#FFFFFF" d="M113.7,228.7c-0.1-5.2,3.5-9.4,8.8-9.5c5.3-0.1,8.9,4,9,9.2c0.1,5.1-3.5,9.4-8.8,9.5
						C117.4,238.1,113.7,234,113.7,228.7z M144,219.4l6.2-0.1l-26.2,37l-6.2,0.1L144,219.4z M126,228.6c0-2.5-1.4-4.6-3.5-4.6
						c-2.2,0-3.3,2.1-3.3,4.7c0,2.5,1.4,4.6,3.5,4.6C124.9,233.2,126,231,126,228.6z M136.4,247.1c-0.1-5.2,3.5-9.4,8.8-9.5
						c5.3-0.1,8.9,4,9,9.2c0.1,5.1-3.5,9.4-8.8,9.5C140.1,256.5,136.5,252.4,136.4,247.1z M148.7,247c0-2.5-1.4-4.6-3.5-4.6
						c-2.2,0-3.3,2.1-3.3,4.7c0,2.5,1.4,4.6,3.5,4.6C147.7,251.6,148.8,249.4,148.7,247z"/>
				</g>
			</g>
			<path fill="#FFB27D" d="M134.1,268.5c-1.9,0-4.2-0.8-5-1.2c-1.3-0.6-1.9-1.3-1.9-1.3l0.2-1.2l0.2-1.5c0,0,0.1,0,0.4,0
				c0.2,0,0.6,0,1-0.1c0,0,0.6,0.2,1.1-0.3c0.5-0.5,1.4-0.8,2.1-0.6c0.7,0.2,2.2,0,2.3,0.3c0.1,0.6-2.1,0.5-2.3,0.9
				c-0.2,0.3,0,0.6,0,0.6c0,0,0,0,0,0c1.3,1.3,5.7,1.8,5.5,2.8C137.6,267.3,134.9,268.5,134.1,268.5z"/>
			<path fill="#2B478B" d="M89.2,241.1c0,0,10.2,23.5,14.7,25.7c4.5,2.2,25.2,0.5,25.2,0.5l0.1-4c0,0-17.8-3.5-19.5-6.5
				c-1.7-2.9-4.6-20.9-9.2-22.7C96,232.3,89,234.7,89.2,241.1z"/>
		</g>
		<g>
			<path fill="#FFB93E" d="M448.2,303.9c-0.2,0.1-0.5,0.3-0.7,0.4c-0.1,0-0.2,0.1-0.2,0.1c-0.2,0.1-0.4,0.2-0.5,0.3
				c-8.7,4.3-19.3,1-24-7.6c-4.5-8.2-2.1-18.3,5.3-23.6c0.6-0.4,1.2-0.8,1.9-1.2c0.2-0.1,0.5-0.3,0.7-0.4c0.2-0.1,0.5-0.2,0.7-0.3
				c0.7-0.3,1.4-0.6,2.2-0.8c1.1-0.3,2.2-0.5,3.3-0.7c3.4-0.4,6.9,0.3,10,1.8c3.3,1.6,6.1,4.2,7.9,7.6
				C459.4,288.1,456.5,298.9,448.2,303.9z"/>
			<g>
				<path fill="#FFA412" d="M438.8,305.1c-6.1,0-11.6-3.3-14.6-8.6c-2.1-3.9-2.6-8.4-1.4-12.6c1.2-4.3,4-7.8,7.9-9.9
					c2.5-1.4,5.2-2.1,8-2.1c6.1,0,11.6,3.3,14.6,8.6c2.1,3.9,2.6,8.4,1.4,12.6c-1.2,4.3-4,7.8-7.9,9.9
					C444.4,304.4,441.6,305.1,438.8,305.1z M438.8,272.9c-2.6,0-5.2,0.7-7.5,1.9c-3.7,2-6.3,5.3-7.5,9.3s-0.7,8.2,1.3,11.9
					c2.8,5,8,8.1,13.7,8.1c2.6,0,5.2-0.7,7.5-1.9c3.7-2,6.3-5.3,7.5-9.3c1.2-4,0.7-8.2-1.3-11.9C449.7,276,444.5,272.9,438.8,272.9z
					"/>
			</g>
			<polygon fill="#FFA412" points="438.8,276.3 442.5,283.7 450.7,284.9 444.7,290.7 446.1,298.8 438.8,295 431.5,298.8 
				432.9,290.7 426.9,284.9 435.1,283.7 			"/>
		</g>
		<g>
			<path fill="#FFB93E" d="M459.1,259.5c-0.1,0.1-0.3,0.2-0.4,0.2c0,0-0.1,0-0.1,0.1c-0.1,0-0.2,0.1-0.3,0.2
				c-4.9,2.4-10.9,0.6-13.5-4.3c-2.5-4.6-1.2-10.3,3-13.3c0.3-0.2,0.7-0.5,1-0.7c0.1-0.1,0.3-0.1,0.4-0.2c0.1-0.1,0.3-0.1,0.4-0.2
				c0.4-0.2,0.8-0.3,1.2-0.5c0.6-0.2,1.2-0.3,1.9-0.4c1.9-0.2,3.9,0.2,5.6,1c1.8,0.9,3.4,2.3,4.5,4.3
				C465.4,250.6,463.8,256.7,459.1,259.5z"/>
			<g>
				<path fill="#FFA412" d="M453.8,260.2c-3.4,0-6.6-1.9-8.2-4.8c-1.2-2.2-1.5-4.7-0.8-7.1c0.7-2.4,2.3-4.4,4.5-5.6
					c1.4-0.8,3-1.2,4.5-1.2c3.4,0,6.6,1.9,8.2,4.8c1.2,2.2,1.5,4.7,0.8,7.1c-0.7,2.4-2.3,4.4-4.5,5.6
					C457,259.8,455.4,260.2,453.8,260.2z M453.8,242c-1.5,0-3,0.4-4.2,1.1c-2.1,1.1-3.6,3-4.2,5.3c-0.7,2.2-0.4,4.6,0.8,6.7
					c1.5,2.8,4.5,4.6,7.7,4.6c1.5,0,3-0.4,4.3-1.1c2.1-1.1,3.6-3,4.2-5.3c0.7-2.3,0.4-4.6-0.8-6.7C460,243.8,457,242,453.8,242z"/>
			</g>
			<polygon fill="#FFA412" points="453.8,244 455.9,248.1 460.5,248.8 457.2,252.1 458,256.7 453.8,254.5 449.7,256.7 450.5,252.1 
				447.1,248.8 451.7,248.1 			"/>
		</g>
		<g>
			<path fill="#CDE0FB" d="M282.6,126.2c-0.1,0.1-0.2,0.2-0.2,0.3c0,0,0,0.1-0.1,0.1c-0.1,0.1-0.1,0.1-0.2,0.2
				c-3.1,3.1-8.1,3.3-11.4,0.4c-3.2-2.8-3.6-7.5-1.3-10.9c0.2-0.3,0.4-0.5,0.6-0.8c0.1-0.1,0.2-0.2,0.3-0.3c0.1-0.1,0.2-0.2,0.3-0.3
				c0.3-0.3,0.5-0.5,0.8-0.7c0.4-0.3,0.9-0.6,1.3-0.8c1.4-0.7,3-0.9,4.5-0.8c1.6,0.2,3.2,0.9,4.5,2
				C285,117.8,285.4,122.8,282.6,126.2z"/>
			<g>
				<path fill="#AFCDFB" d="M276.3,128.6c-1.8,0-3.6-0.7-5-1.9c-1.5-1.3-2.4-3.2-2.5-5.2c-0.1-2,0.6-3.9,1.9-5.4
					c1.3-1.5,3.2-2.4,5.2-2.5c2-0.1,3.9,0.6,5.4,1.9c1.5,1.3,2.4,3.2,2.5,5.2s-0.6,3.9-1.9,5.4c-1.3,1.5-3.2,2.4-5.2,2.5
					C276.6,128.6,276.4,128.6,276.3,128.6z M276.3,114c-0.1,0-0.3,0-0.4,0c-1.9,0.1-3.6,0.9-4.9,2.4c-1.3,1.4-1.9,3.2-1.8,5.1
					c0.1,1.9,0.9,3.6,2.4,4.9c1.4,1.3,3.2,1.9,5.1,1.8s3.6-0.9,4.9-2.4c1.3-1.4,1.9-3.2,1.8-5.1s-0.9-3.6-2.4-4.9
					C279.7,114.6,278,114,276.3,114z"/>
			</g>
			<polygon fill="#AFCDFB" points="274.5,115.8 277.1,118.4 280.8,117.7 279.1,121.1 281,124.3 277.3,123.8 274.7,126.6 
				274.1,122.9 270.7,121.3 274,119.6 			"/>
		</g>
		<g>
			<path fill="#CDE0FB" d="M258.5,348.1c-0.1,0.2-0.3,0.3-0.4,0.5c0,0-0.1,0.1-0.1,0.2c-0.1,0.1-0.2,0.2-0.3,0.4
				c-5.5,5.6-14.4,5.9-20.3,0.7c-5.6-5-6.5-13.4-2.3-19.4c0.3-0.5,0.7-1,1.1-1.4c0.1-0.2,0.3-0.3,0.4-0.5s0.3-0.3,0.4-0.4
				c0.5-0.4,0.9-0.8,1.4-1.2c0.7-0.5,1.5-1,2.3-1.4c2.5-1.2,5.3-1.7,8.1-1.3c2.9,0.3,5.7,1.5,8.1,3.6
				C262.8,333.1,263.5,342.1,258.5,348.1z"/>
			<g>
				<path fill="#AFCDFB" d="M247.2,352.4c-3.3,0-6.4-1.2-8.9-3.4c-2.7-2.4-4.3-5.7-4.5-9.2c-0.2-3.6,1-7,3.4-9.7
					c2.4-2.7,5.7-4.3,9.2-4.5c3.6-0.2,7,1,9.7,3.4c2.7,2.4,4.3,5.7,4.5,9.2c0.2,3.6-1,7-3.4,9.7c-2.4,2.7-5.7,4.3-9.2,4.5
					C247.7,352.3,247.5,352.4,247.2,352.4z M247.2,326.3c-0.2,0-0.5,0-0.8,0c-3.4,0.2-6.5,1.7-8.7,4.2s-3.4,5.8-3.2,9.1
					c0.2,3.4,1.7,6.5,4.2,8.7s5.8,3.4,9.1,3.2c3.4-0.2,6.5-1.7,8.7-4.2c2.2-2.5,3.4-5.8,3.2-9.1c-0.2-3.4-1.7-6.5-4.2-8.7
					C253.3,327.5,250.3,326.3,247.2,326.3z"/>
			</g>
			<polygon fill="#AFCDFB" points="243.9,329.6 248.7,334.3 255.3,333 252.3,339 255.6,344.8 249,343.9 244.4,348.8 243.3,342.2 
				237.2,339.4 243.1,336.3 			"/>
		</g>
		<path fill="#2E3552" d="M467.8,354.7h-430c-0.3,0-0.5-0.2-0.5-0.5V354c0-0.3,0.2-0.5,0.5-0.5h430c0.3,0,0.5,0.2,0.5,0.5v0.2
			C468.3,354.5,468,354.7,467.8,354.7z"/>
		<g>
			<path fill="#6BB7BF" d="M304.6,253.2c0,0-2,1.4-4.3,1.2c-1.7-0.2-3.3-1.7-3.4-1.8l-1.3,2.3c0,0,3.1,1.9,5.7,1.3
				c0.8-0.2,2.1-1,2.7-1.6C304.6,254,304.6,253.2,304.6,253.2z"/>
			<path fill="#86D1CD" d="M304.6,248.3l3.4-1.4c0,0-0.5,7-6.3,9.1C301.7,256.1,305.4,251.3,304.6,248.3z"/>
		</g>
		<path fill="#F99746" d="M328.2,332.1c0,0,1.5,1.7,2.9,1.6c0,0,0.2,1.8-0.3,2.3c0,0-2.5-0.5-3.1-1.4
			C327.7,334.7,327.2,332.5,328.2,332.1z"/>
		<g>
			<path fill="#CDE0FB" d="M305.1,309.2c0,0-1.3-1.6-1.3-3.5c0-1.4,1.2-3,1.3-3l-2.1-1c0,0-1.3,2.7-0.7,4.9c0.2,0.7,1,1.7,1.5,2.2
				C304.5,309.2,305.1,309.2,305.1,309.2z"/>
			<path fill="#CDE0FB" d="M309.2,308.7l1.4,2.8c0,0-6,0.1-8.2-4.6C302.5,306.9,306.8,309.6,309.2,308.7z"/>
		</g>
	</g>
</g>
</svg>
