<?xml version="1.0" standalone="no"?><!DOCTYPE svg PUBLIC "-//W3C//DTD SVG 1.1//EN" "http://www.w3.org/Graphics/SVG/1.1/DTD/svg11.dtd"><svg t="1636879046214" class="icon" viewBox="0 0 1024 1024" version="1.1" xmlns="http://www.w3.org/2000/svg" p-id="1261" xmlns:xlink="http://www.w3.org/1999/xlink" width="200" height="200"><defs><style type="text/css"></style></defs><path d="M1021.214089 971.545629a544.37731 544.37731 0 0 0-192.470554-267.792069 532.086853 532.086853 0 0 0-141.749936-75.701221A338.237371 338.237371 0 0 0 851.345985 336.998333C851.345985 151.182612 702.761356 0 520.063215 0S188.720491 151.182612 188.720491 336.998333a338.337293 338.337293 0 0 0 158.237134 287.256955A531.307458 531.307458 0 0 0 194.55596 703.453793 544.517202 544.517202 0 0 0 2.005468 970.626343a39.349447 39.349447 0 1 0 74.721981 24.70082c63.011074-190.432136 237.815345-318.392779 434.742438-318.392779a448.871467 448.871467 0 0 1 270.230176 89.930173 466.058122 466.058122 0 0 1 164.77206 229.261986 39.349447 39.349447 0 1 0 74.741966-24.580914zM267.419384 336.998333c0-142.409424 113.332002-258.29944 252.643831-258.29944s252.623846 115.91 252.623846 258.29944-113.332002 258.29944-252.623846 258.299439-252.643831-115.870031-252.643831-258.299439z" fill="#3390FF" p-id="1262"></path><path d="M617.247754 893.546193l-197.40672 0.339736a23.981379 23.981379 0 0 1-20.663956-36.231867l100.761763-169.708228a23.981379 23.981379 0 0 1 41.447817 0.359721l96.664943 169.368491a23.981379 23.981379 0 0 1-20.803847 35.872147z" fill="#231815" p-id="1263"></path></svg>