<?xml version="1.0" standalone="no"?><!DOCTYPE svg PUBLIC "-//W3C//DTD SVG 1.1//EN" "http://www.w3.org/Graphics/SVG/1.1/DTD/svg11.dtd"><svg t="1636879022076" class="icon" viewBox="0 0 1024 1024" version="1.1" xmlns="http://www.w3.org/2000/svg" p-id="1124" xmlns:xlink="http://www.w3.org/1999/xlink" width="200" height="200"><defs><style type="text/css"></style></defs><path d="M594.803692 571.222576a22.462013 22.462013 0 0 1-10.491598-2.59792l-72.34207-37.969595-72.322086 37.969595a22.581917 22.581917 0 0 1-32.753771-23.780957l13.828926-80.555492-58.533128-57.034328a22.581917 22.581917 0 0 1 12.509982-38.489179l80.875237-11.75059L491.746219 283.77276a22.561933 22.561933 0 0 1 20.183837-12.609902 22.601901 22.601901 0 0 1 20.283757 12.609902l36.171035 73.281318 80.855253 11.75059a22.561933 22.561933 0 0 1 12.569934 38.449211l-58.513144 57.034328 13.808942 80.555492a22.561933 22.561933 0 0 1-22.242189 26.378877z" fill="#231815" p-id="1125"></path><path d="M961.569993 1024a39.967994 39.967994 0 0 1-17.805742-4.196639L511.930056 805.055327 80.275717 1019.803361a39.967994 39.967994 0 0 1-17.805742 4.196639A62.170215 62.170215 0 0 1 0.339728 961.909721V62.090279A62.170215 62.170215 0 0 1 62.410023 0H961.569993a62.170215 62.170215 0 0 1 62.090279 62.090279v899.819442A62.170215 62.170215 0 0 1 961.569993 1024zM80.275717 79.935989v850.558888l413.90855-205.835171a39.967994 39.967994 0 0 1 35.591499 0l413.908549 205.835171V79.935989z" fill="#3390FF" p-id="1126"></path></svg>