<?xml version="1.0" standalone="no"?><!DOCTYPE svg PUBLIC "-//W3C//DTD SVG 1.1//EN" "http://www.w3.org/Graphics/SVG/1.1/DTD/svg11.dtd"><svg t="1636878967673" class="icon" viewBox="0 0 1024 1024" version="1.1" xmlns="http://www.w3.org/2000/svg" p-id="986" xmlns:xlink="http://www.w3.org/1999/xlink" width="200" height="200"><defs><style type="text/css"></style></defs><path d="M506.41891 1024c-34.146669 0-65.452784-8.541668-96.738894-22.764446L54.010549 804.937214c-19.86388-11.382223-28.405548-36.987224-17.023325-56.791092s37.027232-28.565579 56.891112-17.183356l355.629458 193.457785a145.688455 145.688455 0 0 0 119.483337 0l358.470014-193.457785c20.003907-11.382223 45.528892-2.840555 56.911115 17.083337s2.840555 45.508888-17.063332 56.891111L605.978355 998.394999a207.620551 207.620551 0 0 1-99.559445 25.605001z" fill="#3390FF" p-id="987"></path><path d="M506.41891 814.43907c-34.146669 0-65.452784-8.541668-96.738894-22.764446L54.010549 595.376284c-19.903887-11.382223-28.445556-36.987224-17.063333-56.911115S74.014456 510.099629 93.878336 521.401836l355.629458 193.457785a145.848486 145.848486 0 0 0 119.483337 0l358.470014-193.457785c20.003907-11.382223 45.528892-2.840555 56.911115 17.063333s2.840555 45.528892-17.063332 56.911115l-361.330573 193.457785a207.620551 207.620551 0 0 1-99.559445 25.605001z" fill="#231815" p-id="988"></path><path d="M506.41891 598.11682c-34.146669 0-65.452784-8.521664-96.738894-22.764446L54.010549 379.094042c-34.006642-19.903887-54.010549-48.369447-54.010549-79.655558s20.003907-62.592225 56.891112-82.516116l361.330572-193.457785c65.43278-31.286111 136.546669-31.286111 196.298339 0h2.840555L970.18949 216.922368c34.126665 20.003907 54.010549 48.369447 54.010549 79.675561s-20.003907 62.592225-56.891111 82.496113l-361.330573 193.457785A207.380504 207.380504 0 0 1 506.41891 598.11682zM88.197226 299.438484c2.840555 2.840555 2.840555 2.840555 8.541668 5.68111l352.7689 193.457784a145.688455 145.688455 0 0 0 119.483337 0l358.470014-193.457784a35.066849 35.066849 0 0 0 8.541668-5.68111c-2.840555-2.840555-2.840555-2.840555-8.541668-5.701113L577.532799 100.279586a152.549795 152.549795 0 0 0-122.323891 0l-358.470014 193.457785a35.406915 35.406915 0 0 0-8.541668 5.701113z" fill="#3390FF" p-id="989"></path></svg>